<mxfile host="app.diagrams.net" agent="Mozilla/5.0 (Macintosh; Intel Mac OS X 10_15_7) AppleWebKit/537.36 (KHTML, like Gecko) Chrome/129.0.0.0 Safari/537.36" version="24.8.0">
  <diagram name="第 1 页" id="N8JO_KEFSmNsVWgYj_we">
    <mxGraphModel dx="1272" dy="807" grid="1" gridSize="10" guides="1" tooltips="1" connect="1" arrows="1" fold="1" page="1" pageScale="1" pageWidth="827" pageHeight="1169" math="0" shadow="0">
      <root>
        <mxCell id="0" />
        <mxCell id="1" parent="0" />
        <mxCell id="ECZIcq-fkmxUqjtuvBkG-92" value="" style="shape=loopLimit;whiteSpace=wrap;html=1;fillColor=#dae8fc;strokeColor=#6c8ebf;" parent="1" vertex="1">
          <mxGeometry x="385" y="315" width="235" height="230" as="geometry" />
        </mxCell>
        <mxCell id="ECZIcq-fkmxUqjtuvBkG-53" value="" style="shape=loopLimit;whiteSpace=wrap;html=1;fillColor=#f8cecc;strokeColor=#b85450;" parent="1" vertex="1">
          <mxGeometry x="240" y="700" width="510" height="103" as="geometry" />
        </mxCell>
        <mxCell id="ECZIcq-fkmxUqjtuvBkG-1" value="CPU启动" style="shape=parallelogram;perimeter=parallelogramPerimeter;whiteSpace=wrap;html=1;fixedSize=1;" parent="1" vertex="1">
          <mxGeometry x="270" y="150" width="100" height="40" as="geometry" />
        </mxCell>
        <mxCell id="ECZIcq-fkmxUqjtuvBkG-10" style="edgeStyle=orthogonalEdgeStyle;rounded=0;orthogonalLoop=1;jettySize=auto;html=1;entryX=0.5;entryY=0;entryDx=0;entryDy=0;" parent="1" target="ECZIcq-fkmxUqjtuvBkG-4" edge="1">
          <mxGeometry relative="1" as="geometry">
            <mxPoint x="320" y="190" as="sourcePoint" />
          </mxGeometry>
        </mxCell>
        <mxCell id="ECZIcq-fkmxUqjtuvBkG-11" style="edgeStyle=orthogonalEdgeStyle;rounded=0;orthogonalLoop=1;jettySize=auto;html=1;entryX=0.5;entryY=0;entryDx=0;entryDy=0;" parent="1" source="ECZIcq-fkmxUqjtuvBkG-4" target="ECZIcq-fkmxUqjtuvBkG-6" edge="1">
          <mxGeometry relative="1" as="geometry" />
        </mxCell>
        <mxCell id="ECZIcq-fkmxUqjtuvBkG-4" value="Clock = 0" style="rounded=1;whiteSpace=wrap;html=1;" parent="1" vertex="1">
          <mxGeometry x="270" y="230" width="100" height="40" as="geometry" />
        </mxCell>
        <mxCell id="ECZIcq-fkmxUqjtuvBkG-12" style="edgeStyle=orthogonalEdgeStyle;rounded=0;orthogonalLoop=1;jettySize=auto;html=1;entryX=0.5;entryY=0;entryDx=0;entryDy=0;" parent="1" source="ECZIcq-fkmxUqjtuvBkG-6" target="ECZIcq-fkmxUqjtuvBkG-7" edge="1">
          <mxGeometry relative="1" as="geometry" />
        </mxCell>
        <mxCell id="ECZIcq-fkmxUqjtuvBkG-6" value="Clock += 1" style="rounded=1;whiteSpace=wrap;html=1;" parent="1" vertex="1">
          <mxGeometry x="270" y="310" width="100" height="40" as="geometry" />
        </mxCell>
        <mxCell id="ECZIcq-fkmxUqjtuvBkG-13" style="edgeStyle=orthogonalEdgeStyle;rounded=0;orthogonalLoop=1;jettySize=auto;html=1;entryX=0.5;entryY=0;entryDx=0;entryDy=0;" parent="1" source="ECZIcq-fkmxUqjtuvBkG-7" target="ECZIcq-fkmxUqjtuvBkG-8" edge="1">
          <mxGeometry relative="1" as="geometry" />
        </mxCell>
        <mxCell id="ECZIcq-fkmxUqjtuvBkG-7" value="维护队列" style="rounded=1;whiteSpace=wrap;html=1;" parent="1" vertex="1">
          <mxGeometry x="270" y="390" width="100" height="40" as="geometry" />
        </mxCell>
        <mxCell id="ECZIcq-fkmxUqjtuvBkG-16" style="edgeStyle=orthogonalEdgeStyle;rounded=0;orthogonalLoop=1;jettySize=auto;html=1;entryX=0.5;entryY=0;entryDx=0;entryDy=0;" parent="1" source="ECZIcq-fkmxUqjtuvBkG-8" target="ECZIcq-fkmxUqjtuvBkG-15" edge="1">
          <mxGeometry relative="1" as="geometry" />
        </mxCell>
        <mxCell id="ECZIcq-fkmxUqjtuvBkG-64" value="YES" style="edgeLabel;html=1;align=center;verticalAlign=middle;resizable=0;points=[];" parent="ECZIcq-fkmxUqjtuvBkG-16" vertex="1" connectable="0">
          <mxGeometry x="-0.7375" relative="1" as="geometry">
            <mxPoint x="-12" as="offset" />
          </mxGeometry>
        </mxCell>
        <mxCell id="ECZIcq-fkmxUqjtuvBkG-25" style="edgeStyle=orthogonalEdgeStyle;rounded=0;orthogonalLoop=1;jettySize=auto;html=1;entryX=0.5;entryY=0;entryDx=0;entryDy=0;" parent="1" source="ECZIcq-fkmxUqjtuvBkG-8" target="ECZIcq-fkmxUqjtuvBkG-24" edge="1">
          <mxGeometry relative="1" as="geometry" />
        </mxCell>
        <mxCell id="ECZIcq-fkmxUqjtuvBkG-65" value="NO" style="edgeLabel;html=1;align=center;verticalAlign=middle;resizable=0;points=[];" parent="ECZIcq-fkmxUqjtuvBkG-25" vertex="1" connectable="0">
          <mxGeometry x="-0.3803" y="-1" relative="1" as="geometry">
            <mxPoint x="1" y="-2" as="offset" />
          </mxGeometry>
        </mxCell>
        <mxCell id="ECZIcq-fkmxUqjtuvBkG-8" value="当前任务完成" style="rhombus;whiteSpace=wrap;html=1;" parent="1" vertex="1">
          <mxGeometry x="270" y="470" width="100" height="40" as="geometry" />
        </mxCell>
        <mxCell id="ECZIcq-fkmxUqjtuvBkG-20" style="edgeStyle=orthogonalEdgeStyle;rounded=0;orthogonalLoop=1;jettySize=auto;html=1;entryX=0.5;entryY=0;entryDx=0;entryDy=0;" parent="1" source="ECZIcq-fkmxUqjtuvBkG-15" target="ECZIcq-fkmxUqjtuvBkG-19" edge="1">
          <mxGeometry relative="1" as="geometry" />
        </mxCell>
        <mxCell id="ECZIcq-fkmxUqjtuvBkG-15" value="结束进程并记录信息" style="rounded=1;whiteSpace=wrap;html=1;" parent="1" vertex="1">
          <mxGeometry x="90" y="520" width="120" height="40" as="geometry" />
        </mxCell>
        <mxCell id="ECZIcq-fkmxUqjtuvBkG-22" style="edgeStyle=orthogonalEdgeStyle;rounded=0;orthogonalLoop=1;jettySize=auto;html=1;" parent="1" source="ECZIcq-fkmxUqjtuvBkG-19" edge="1">
          <mxGeometry relative="1" as="geometry">
            <Array as="points" />
            <mxPoint x="150" y="700" as="targetPoint" />
          </mxGeometry>
        </mxCell>
        <mxCell id="ECZIcq-fkmxUqjtuvBkG-30" value="YES" style="edgeLabel;html=1;align=center;verticalAlign=middle;resizable=0;points=[];" parent="ECZIcq-fkmxUqjtuvBkG-22" vertex="1" connectable="0">
          <mxGeometry x="0.0348" relative="1" as="geometry">
            <mxPoint as="offset" />
          </mxGeometry>
        </mxCell>
        <mxCell id="ET1_lnFRO9KFXfgDEDGB-11" style="edgeStyle=orthogonalEdgeStyle;rounded=0;orthogonalLoop=1;jettySize=auto;html=1;" edge="1" parent="1" source="ECZIcq-fkmxUqjtuvBkG-19">
          <mxGeometry relative="1" as="geometry">
            <mxPoint x="150" y="780" as="targetPoint" />
            <Array as="points">
              <mxPoint x="40" y="620" />
              <mxPoint x="40" y="780" />
            </Array>
          </mxGeometry>
        </mxCell>
        <mxCell id="ET1_lnFRO9KFXfgDEDGB-12" value="NO" style="edgeLabel;html=1;align=center;verticalAlign=middle;resizable=0;points=[];" vertex="1" connectable="0" parent="ET1_lnFRO9KFXfgDEDGB-11">
          <mxGeometry x="-0.8866" y="2" relative="1" as="geometry">
            <mxPoint x="-2" y="-2" as="offset" />
          </mxGeometry>
        </mxCell>
        <mxCell id="ECZIcq-fkmxUqjtuvBkG-19" value="结束的是中断" style="rhombus;whiteSpace=wrap;html=1;" parent="1" vertex="1">
          <mxGeometry x="100" y="600" width="100" height="40" as="geometry" />
        </mxCell>
        <mxCell id="ECZIcq-fkmxUqjtuvBkG-72" style="edgeStyle=orthogonalEdgeStyle;rounded=0;orthogonalLoop=1;jettySize=auto;html=1;entryX=0.5;entryY=0;entryDx=0;entryDy=0;" parent="1" source="ECZIcq-fkmxUqjtuvBkG-21" target="ECZIcq-fkmxUqjtuvBkG-71" edge="1">
          <mxGeometry relative="1" as="geometry" />
        </mxCell>
        <mxCell id="ECZIcq-fkmxUqjtuvBkG-21" value="开中断" style="rounded=1;whiteSpace=wrap;html=1;" parent="1" vertex="1">
          <mxGeometry x="100" y="700" width="100" height="43" as="geometry" />
        </mxCell>
        <mxCell id="ECZIcq-fkmxUqjtuvBkG-28" style="edgeStyle=orthogonalEdgeStyle;rounded=0;orthogonalLoop=1;jettySize=auto;html=1;" parent="1" source="ECZIcq-fkmxUqjtuvBkG-24" target="ECZIcq-fkmxUqjtuvBkG-27" edge="1">
          <mxGeometry relative="1" as="geometry" />
        </mxCell>
        <mxCell id="ECZIcq-fkmxUqjtuvBkG-29" value="YES" style="edgeLabel;html=1;align=center;verticalAlign=middle;resizable=0;points=[];" parent="ECZIcq-fkmxUqjtuvBkG-28" vertex="1" connectable="0">
          <mxGeometry x="-0.1333" y="2" relative="1" as="geometry">
            <mxPoint as="offset" />
          </mxGeometry>
        </mxCell>
        <mxCell id="ECZIcq-fkmxUqjtuvBkG-33" style="edgeStyle=orthogonalEdgeStyle;rounded=0;orthogonalLoop=1;jettySize=auto;html=1;" parent="1" source="ECZIcq-fkmxUqjtuvBkG-24" edge="1">
          <mxGeometry relative="1" as="geometry">
            <mxPoint x="420" y="570" as="targetPoint" />
          </mxGeometry>
        </mxCell>
        <mxCell id="ECZIcq-fkmxUqjtuvBkG-37" value="NO" style="edgeLabel;html=1;align=center;verticalAlign=middle;resizable=0;points=[];" parent="ECZIcq-fkmxUqjtuvBkG-33" vertex="1" connectable="0">
          <mxGeometry x="-0.4158" relative="1" as="geometry">
            <mxPoint x="-83" as="offset" />
          </mxGeometry>
        </mxCell>
        <mxCell id="ECZIcq-fkmxUqjtuvBkG-95" value="NO" style="edgeLabel;html=1;align=center;verticalAlign=middle;resizable=0;points=[];" parent="ECZIcq-fkmxUqjtuvBkG-33" vertex="1" connectable="0">
          <mxGeometry x="-0.3107" relative="1" as="geometry">
            <mxPoint as="offset" />
          </mxGeometry>
        </mxCell>
        <mxCell id="ECZIcq-fkmxUqjtuvBkG-24" value="如果有中断" style="rhombus;whiteSpace=wrap;html=1;" parent="1" vertex="1">
          <mxGeometry x="270" y="550" width="100" height="40" as="geometry" />
        </mxCell>
        <mxCell id="ECZIcq-fkmxUqjtuvBkG-34" value="YES" style="edgeStyle=orthogonalEdgeStyle;rounded=0;orthogonalLoop=1;jettySize=auto;html=1;exitX=0.5;exitY=1;exitDx=0;exitDy=0;" parent="1" source="ECZIcq-fkmxUqjtuvBkG-27" edge="1">
          <mxGeometry relative="1" as="geometry">
            <mxPoint x="320.04761904761904" y="710" as="targetPoint" />
          </mxGeometry>
        </mxCell>
        <mxCell id="ECZIcq-fkmxUqjtuvBkG-41" style="edgeStyle=orthogonalEdgeStyle;rounded=0;orthogonalLoop=1;jettySize=auto;html=1;" parent="1" source="ECZIcq-fkmxUqjtuvBkG-27" edge="1">
          <mxGeometry relative="1" as="geometry">
            <mxPoint x="630" y="650" as="targetPoint" />
          </mxGeometry>
        </mxCell>
        <mxCell id="ECZIcq-fkmxUqjtuvBkG-42" value="NO" style="edgeLabel;html=1;align=center;verticalAlign=middle;resizable=0;points=[];" parent="ECZIcq-fkmxUqjtuvBkG-41" vertex="1" connectable="0">
          <mxGeometry x="-0.8936" y="-1" relative="1" as="geometry">
            <mxPoint as="offset" />
          </mxGeometry>
        </mxCell>
        <mxCell id="ECZIcq-fkmxUqjtuvBkG-27" value="如果开中断" style="rhombus;whiteSpace=wrap;html=1;" parent="1" vertex="1">
          <mxGeometry x="270" y="630" width="100" height="40" as="geometry" />
        </mxCell>
        <mxCell id="ECZIcq-fkmxUqjtuvBkG-61" style="edgeStyle=orthogonalEdgeStyle;rounded=0;orthogonalLoop=1;jettySize=auto;html=1;" parent="1" source="ECZIcq-fkmxUqjtuvBkG-43" edge="1">
          <mxGeometry relative="1" as="geometry">
            <mxPoint x="320" y="290" as="targetPoint" />
            <Array as="points">
              <mxPoint x="770" y="650" />
              <mxPoint x="770" y="290" />
            </Array>
          </mxGeometry>
        </mxCell>
        <mxCell id="ECZIcq-fkmxUqjtuvBkG-43" value="运行一个时钟" style="rounded=1;whiteSpace=wrap;html=1;" parent="1" vertex="1">
          <mxGeometry x="630" y="630" width="100" height="40" as="geometry" />
        </mxCell>
        <mxCell id="ECZIcq-fkmxUqjtuvBkG-50" style="edgeStyle=orthogonalEdgeStyle;rounded=0;orthogonalLoop=1;jettySize=auto;html=1;entryX=0;entryY=0.5;entryDx=0;entryDy=0;" parent="1" source="ECZIcq-fkmxUqjtuvBkG-47" target="ECZIcq-fkmxUqjtuvBkG-48" edge="1">
          <mxGeometry relative="1" as="geometry" />
        </mxCell>
        <mxCell id="ECZIcq-fkmxUqjtuvBkG-47" value="停止现在的任务" style="rounded=1;whiteSpace=wrap;html=1;" parent="1" vertex="1">
          <mxGeometry x="270" y="710" width="100" height="40" as="geometry" />
        </mxCell>
        <mxCell id="ET1_lnFRO9KFXfgDEDGB-9" style="edgeStyle=orthogonalEdgeStyle;rounded=0;orthogonalLoop=1;jettySize=auto;html=1;" edge="1" parent="1" source="ECZIcq-fkmxUqjtuvBkG-48" target="ET1_lnFRO9KFXfgDEDGB-6">
          <mxGeometry relative="1" as="geometry" />
        </mxCell>
        <mxCell id="ECZIcq-fkmxUqjtuvBkG-48" value="关中断" style="rounded=1;whiteSpace=wrap;html=1;" parent="1" vertex="1">
          <mxGeometry x="390" y="710" width="100" height="40" as="geometry" />
        </mxCell>
        <mxCell id="ET1_lnFRO9KFXfgDEDGB-8" style="edgeStyle=orthogonalEdgeStyle;rounded=0;orthogonalLoop=1;jettySize=auto;html=1;entryX=0.5;entryY=1;entryDx=0;entryDy=0;" edge="1" parent="1" source="ECZIcq-fkmxUqjtuvBkG-49" target="ECZIcq-fkmxUqjtuvBkG-43">
          <mxGeometry relative="1" as="geometry" />
        </mxCell>
        <mxCell id="ECZIcq-fkmxUqjtuvBkG-49" value="新中断上CPU" style="rounded=1;whiteSpace=wrap;html=1;" parent="1" vertex="1">
          <mxGeometry x="630" y="710" width="100" height="40" as="geometry" />
        </mxCell>
        <mxCell id="ECZIcq-fkmxUqjtuvBkG-54" value="&lt;p&gt;&lt;font style=&quot;font-size: 21px;&quot;&gt;&lt;i&gt;&lt;b&gt;&lt;u&gt;中断逻辑&lt;/u&gt;&lt;/b&gt;&lt;/i&gt;&lt;/font&gt;&lt;/p&gt;" style="text;html=1;align=center;verticalAlign=middle;whiteSpace=wrap;rounded=0;" parent="1" vertex="1">
          <mxGeometry x="295" y="760" width="125" height="30" as="geometry" />
        </mxCell>
        <mxCell id="ECZIcq-fkmxUqjtuvBkG-62" value="&amp;nbsp;&amp;nbsp;" style="text;html=1;align=center;verticalAlign=middle;whiteSpace=wrap;rounded=0;" parent="1" vertex="1">
          <mxGeometry x="430" y="820" width="60" height="30" as="geometry" />
        </mxCell>
        <mxCell id="ECZIcq-fkmxUqjtuvBkG-63" value="&amp;nbsp;&amp;nbsp;&lt;div&gt;&lt;br&gt;&lt;/div&gt;" style="text;html=1;align=center;verticalAlign=middle;whiteSpace=wrap;rounded=0;" parent="1" vertex="1">
          <mxGeometry x="470" y="210" width="60" height="30" as="geometry" />
        </mxCell>
        <mxCell id="ECZIcq-fkmxUqjtuvBkG-70" style="edgeStyle=orthogonalEdgeStyle;rounded=0;orthogonalLoop=1;jettySize=auto;html=1;" parent="1" source="ECZIcq-fkmxUqjtuvBkG-68" edge="1">
          <mxGeometry relative="1" as="geometry">
            <mxPoint x="680" y="690" as="targetPoint" />
            <Array as="points">
              <mxPoint x="770" y="930" />
              <mxPoint x="770" y="690" />
            </Array>
          </mxGeometry>
        </mxCell>
        <mxCell id="ECZIcq-fkmxUqjtuvBkG-68" value="向队列容器索取新进程" style="shape=loopLimit;whiteSpace=wrap;html=1;fillColor=#d5e8d4;strokeColor=#82b366;" parent="1" vertex="1">
          <mxGeometry x="360" y="890" width="150" height="60" as="geometry" />
        </mxCell>
        <mxCell id="ECZIcq-fkmxUqjtuvBkG-74" style="edgeStyle=orthogonalEdgeStyle;rounded=0;orthogonalLoop=1;jettySize=auto;html=1;entryX=0.5;entryY=1;entryDx=0;entryDy=0;" parent="1" source="ECZIcq-fkmxUqjtuvBkG-71" target="ECZIcq-fkmxUqjtuvBkG-49" edge="1">
          <mxGeometry relative="1" as="geometry" />
        </mxCell>
        <mxCell id="ET1_lnFRO9KFXfgDEDGB-14" value="YES" style="edgeLabel;html=1;align=center;verticalAlign=middle;resizable=0;points=[];" vertex="1" connectable="0" parent="ECZIcq-fkmxUqjtuvBkG-74">
          <mxGeometry x="-0.9029" y="-1" relative="1" as="geometry">
            <mxPoint as="offset" />
          </mxGeometry>
        </mxCell>
        <mxCell id="ET1_lnFRO9KFXfgDEDGB-2" style="edgeStyle=orthogonalEdgeStyle;rounded=0;orthogonalLoop=1;jettySize=auto;html=1;entryX=0;entryY=0.5;entryDx=0;entryDy=0;" edge="1" parent="1" source="ECZIcq-fkmxUqjtuvBkG-71" target="ECZIcq-fkmxUqjtuvBkG-68">
          <mxGeometry relative="1" as="geometry">
            <mxPoint x="150" y="930" as="targetPoint" />
            <Array as="points">
              <mxPoint x="150" y="920" />
            </Array>
          </mxGeometry>
        </mxCell>
        <mxCell id="ET1_lnFRO9KFXfgDEDGB-10" value="NO" style="edgeLabel;html=1;align=center;verticalAlign=middle;resizable=0;points=[];" vertex="1" connectable="0" parent="ET1_lnFRO9KFXfgDEDGB-2">
          <mxGeometry x="-0.5198" relative="1" as="geometry">
            <mxPoint x="-5" y="-50" as="offset" />
          </mxGeometry>
        </mxCell>
        <mxCell id="ECZIcq-fkmxUqjtuvBkG-71" value="如果有中断" style="rhombus;whiteSpace=wrap;html=1;" parent="1" vertex="1">
          <mxGeometry x="100" y="820" width="100" height="40" as="geometry" />
        </mxCell>
        <mxCell id="ECZIcq-fkmxUqjtuvBkG-81" style="edgeStyle=orthogonalEdgeStyle;rounded=0;orthogonalLoop=1;jettySize=auto;html=1;" parent="1" source="ECZIcq-fkmxUqjtuvBkG-80" target="ECZIcq-fkmxUqjtuvBkG-43" edge="1">
          <mxGeometry relative="1" as="geometry" />
        </mxCell>
        <mxCell id="ECZIcq-fkmxUqjtuvBkG-82" value="NO" style="edgeLabel;html=1;align=center;verticalAlign=middle;resizable=0;points=[];" parent="ECZIcq-fkmxUqjtuvBkG-81" vertex="1" connectable="0">
          <mxGeometry x="-0.6838" y="2" relative="1" as="geometry">
            <mxPoint x="-15" y="2" as="offset" />
          </mxGeometry>
        </mxCell>
        <mxCell id="ECZIcq-fkmxUqjtuvBkG-84" style="edgeStyle=orthogonalEdgeStyle;rounded=0;orthogonalLoop=1;jettySize=auto;html=1;" parent="1" source="ECZIcq-fkmxUqjtuvBkG-80" edge="1">
          <mxGeometry relative="1" as="geometry">
            <mxPoint x="470" y="520" as="targetPoint" />
          </mxGeometry>
        </mxCell>
        <mxCell id="ECZIcq-fkmxUqjtuvBkG-93" value="YES" style="edgeLabel;html=1;align=center;verticalAlign=middle;resizable=0;points=[];" parent="ECZIcq-fkmxUqjtuvBkG-84" vertex="1" connectable="0">
          <mxGeometry x="-0.3792" y="-1" relative="1" as="geometry">
            <mxPoint as="offset" />
          </mxGeometry>
        </mxCell>
        <mxCell id="ECZIcq-fkmxUqjtuvBkG-80" value="时间片耗尽" style="rhombus;whiteSpace=wrap;html=1;" parent="1" vertex="1">
          <mxGeometry x="420" y="550" width="100" height="40" as="geometry" />
        </mxCell>
        <mxCell id="ECZIcq-fkmxUqjtuvBkG-87" style="edgeStyle=orthogonalEdgeStyle;rounded=0;orthogonalLoop=1;jettySize=auto;html=1;entryX=0.5;entryY=1;entryDx=0;entryDy=0;" parent="1" source="ECZIcq-fkmxUqjtuvBkG-85" target="ECZIcq-fkmxUqjtuvBkG-86" edge="1">
          <mxGeometry relative="1" as="geometry" />
        </mxCell>
        <mxCell id="ECZIcq-fkmxUqjtuvBkG-85" value="停止现在的任务" style="rounded=1;whiteSpace=wrap;html=1;" parent="1" vertex="1">
          <mxGeometry x="420" y="480" width="100" height="40" as="geometry" />
        </mxCell>
        <mxCell id="ECZIcq-fkmxUqjtuvBkG-89" style="edgeStyle=orthogonalEdgeStyle;rounded=0;orthogonalLoop=1;jettySize=auto;html=1;" parent="1" source="ECZIcq-fkmxUqjtuvBkG-86" target="ECZIcq-fkmxUqjtuvBkG-88" edge="1">
          <mxGeometry relative="1" as="geometry" />
        </mxCell>
        <mxCell id="ECZIcq-fkmxUqjtuvBkG-86" value="加入等待队列" style="rounded=1;whiteSpace=wrap;html=1;" parent="1" vertex="1">
          <mxGeometry x="420" y="410" width="100" height="40" as="geometry" />
        </mxCell>
        <mxCell id="ET1_lnFRO9KFXfgDEDGB-4" style="edgeStyle=orthogonalEdgeStyle;rounded=0;orthogonalLoop=1;jettySize=auto;html=1;" edge="1" parent="1" source="ECZIcq-fkmxUqjtuvBkG-88" target="ET1_lnFRO9KFXfgDEDGB-3">
          <mxGeometry relative="1" as="geometry" />
        </mxCell>
        <mxCell id="ECZIcq-fkmxUqjtuvBkG-88" value="向队列容器索取新进程" style="shape=loopLimit;whiteSpace=wrap;html=1;fillColor=#d5e8d4;strokeColor=#82b366;" parent="1" vertex="1">
          <mxGeometry x="395" y="330" width="150" height="60" as="geometry" />
        </mxCell>
        <mxCell id="ECZIcq-fkmxUqjtuvBkG-94" value="&lt;font style=&quot;font-size: 21px;&quot;&gt;&lt;i&gt;&lt;b&gt;&lt;u&gt;时间片轮转逻辑&lt;/u&gt;&lt;/b&gt;&lt;/i&gt;&lt;/font&gt;" style="text;html=1;align=center;verticalAlign=middle;whiteSpace=wrap;rounded=0;" parent="1" vertex="1">
          <mxGeometry x="520" y="460" width="90" height="30" as="geometry" />
        </mxCell>
        <mxCell id="ET1_lnFRO9KFXfgDEDGB-5" style="edgeStyle=orthogonalEdgeStyle;rounded=0;orthogonalLoop=1;jettySize=auto;html=1;" edge="1" parent="1" source="ET1_lnFRO9KFXfgDEDGB-3">
          <mxGeometry relative="1" as="geometry">
            <mxPoint x="680" y="630" as="targetPoint" />
          </mxGeometry>
        </mxCell>
        <mxCell id="ET1_lnFRO9KFXfgDEDGB-3" value="新进程上CPU" style="rounded=1;whiteSpace=wrap;html=1;" vertex="1" parent="1">
          <mxGeometry x="630" y="450" width="100" height="40" as="geometry" />
        </mxCell>
        <mxCell id="ET1_lnFRO9KFXfgDEDGB-7" style="edgeStyle=orthogonalEdgeStyle;rounded=0;orthogonalLoop=1;jettySize=auto;html=1;" edge="1" parent="1" source="ET1_lnFRO9KFXfgDEDGB-6" target="ECZIcq-fkmxUqjtuvBkG-49">
          <mxGeometry relative="1" as="geometry" />
        </mxCell>
        <mxCell id="ET1_lnFRO9KFXfgDEDGB-6" value="加入等待队列" style="rounded=1;whiteSpace=wrap;html=1;" vertex="1" parent="1">
          <mxGeometry x="510" y="710" width="100" height="40" as="geometry" />
        </mxCell>
        <mxCell id="ET1_lnFRO9KFXfgDEDGB-15" value="&amp;nbsp;" style="text;html=1;align=center;verticalAlign=middle;whiteSpace=wrap;rounded=0;" vertex="1" parent="1">
          <mxGeometry x="360" y="970" width="60" height="30" as="geometry" />
        </mxCell>
      </root>
    </mxGraphModel>
  </diagram>
</mxfile>
